<?xml version="1.0" encoding="UTF-8" standalone="no"?>
<!-- Created with Inkscape (http://www.inkscape.org/) -->

<svg
   xmlns:dc="http://purl.org/dc/elements/1.1/"
   xmlns:cc="http://creativecommons.org/ns#"
   xmlns:rdf="http://www.w3.org/1999/02/22-rdf-syntax-ns#"
   xmlns:svg="http://www.w3.org/2000/svg"
   xmlns="http://www.w3.org/2000/svg"
   xmlns:sodipodi="http://sodipodi.sourceforge.net/DTD/sodipodi-0.dtd"
   xmlns:inkscape="http://www.inkscape.org/namespaces/inkscape"
   width="666.43127"
   height="175.99274"
   id="svg2"
   version="1.1"
   inkscape:version="0.48.4 r9939"
   sodipodi:docname="foliation.svg">
  <sodipodi:namedview
     id="base"
     pagecolor="#ffffff"
     bordercolor="#666666"
     borderopacity="1.0"
     inkscape:pageopacity="0.0"
     inkscape:pageshadow="2"
     inkscape:zoom="0.7"
     inkscape:cx="173.44019"
     inkscape:cy="125.49384"
     inkscape:document-units="px"
     inkscape:current-layer="layer1"
     showgrid="false"
     fit-margin-top="0"
     fit-margin-left="0"
     fit-margin-right="0"
     fit-margin-bottom="0"
     inkscape:window-width="1920"
     inkscape:window-height="1018"
     inkscape:window-x="1280"
     inkscape:window-y="27"
     inkscape:window-maximized="1" />
  <defs
     id="defs4" />
  <metadata
     id="metadata7">
    <rdf:RDF>
      <cc:Work
         rdf:about="">
        <dc:format>image/svg+xml</dc:format>
        <dc:type
           rdf:resource="http://purl.org/dc/dcmitype/StillImage" />
        <dc:title />
      </cc:Work>
    </rdf:RDF>
  </metadata>
  <g
     inkscape:label="Layer 1"
     inkscape:groupmode="layer"
     id="layer1"
     transform="translate(-94.442033,-829.24867)">
    <path
       style="fill:none;stroke:#000000;stroke-width:1px;stroke-linecap:butt;stroke-linejoin:miter;stroke-opacity:1"
       d="M 94.942033,963.65102 C 133.67837,939.3076 181.17818,918.7271 228.01038,922.68557 c 38.78719,4.13345 66.2434,5.4926 94.61064,22.80326 7.08065,4.46315 13.53245,10.0086 18.6513,16.65047 1.85288,17.71194 22.26342,25.45907 25.4863,42.6021 -55.56865,-18.74245 -117.00552,-24.58354 -168.38214,-1.8232 -14.67319,2.2847 -25.84364,-11.14961 -30.68788,-23.45034 -4.44269,-11.45408 -14.6657,-23.51252 -28.24651,-21.62494 -15.02607,1.08088 -29.13799,9.83197 -44.500057,5.88453"
       id="path3026"
       inkscape:connector-curvature="0"
       sodipodi:nodetypes="ccccccccc" />
    <path
       style="fill:none;stroke:#000000;stroke-width:1px;stroke-linecap:butt;stroke-linejoin:miter;stroke-opacity:0.15686275"
       d="m 169.55374,970.17007 c 15.27138,-5.31442 31.46279,-7.64786 47.59184,-7.97631"
       id="path3043"
       inkscape:connector-curvature="0" />
    <path
       style="fill:none;stroke:#000000;stroke-width:1px;stroke-linecap:butt;stroke-linejoin:miter;stroke-opacity:0.15686275"
       d="m 176.61576,982.74802 c 28.63128,-4.5025 57.12569,-11.33051 86.27939,-11.04402"
       id="path3045"
       inkscape:connector-curvature="0" />
    <path
       style="fill:none;stroke:#000000;stroke-width:1px;stroke-linecap:butt;stroke-linejoin:miter;stroke-opacity:0.15686275"
       d="m 191.04683,994.09885 c 10.7798,-5.82191 23.55903,-4.182 35.00303,-7.66947"
       id="path3047"
       inkscape:connector-curvature="0" />
    <path
       style="fill:none;stroke:#000000;stroke-width:1px;stroke-linecap:butt;stroke-linejoin:miter;stroke-opacity:0.15686275"
       d="m 174.15941,961.88703 c 8.80562,11.90214 17.10963,24.45068 28.5551,34.0525"
       id="path3049"
       inkscape:connector-curvature="0" />
    <path
       style="fill:none;stroke:#000000;stroke-width:1px;stroke-linecap:butt;stroke-linejoin:miter;stroke-opacity:0.15686275"
       d="m 197.49476,958.81924 c 5.19944,12.42861 11.31969,25.53352 23.0283,33.13216"
       id="path3051"
       inkscape:connector-curvature="0" />
    <path
       style="fill:none;stroke:#000000;stroke-width:1px;stroke-linecap:butt;stroke-linejoin:miter;stroke-opacity:0.15686275"
       d="m 223.28646,968.63618 c 4.66533,4.74822 5.64717,11.9141 10.4395,16.56608"
       id="path3053"
       inkscape:connector-curvature="0" />
    <path
       style="fill:none;stroke:#000000;stroke-width:1px;stroke-linecap:butt;stroke-linejoin:miter;stroke-opacity:0.15686275"
       d="m 242.63024,970.47685 c 3.07947,2.75849 5.22778,6.33316 7.36906,9.81694"
       id="path3055"
       inkscape:connector-curvature="0" />
    <path
       sodipodi:nodetypes="ccccccc"
       inkscape:connector-curvature="0"
       id="path3995"
       d="m 102.32388,923.69331 c 38.73633,-24.34341 82.86847,-73.90287 120.47579,-45.73782 36.83318,28.86298 59.5129,8.7465 87.88014,26.05715 14.95419,14.2102 55.07565,47.67736 56.51304,54.04638 -39.56438,-50.99794 -146.02599,-47.96213 -193.6422,-6.18411 -4.6598,-9.50175 -25.95558,-16.78782 -39.53638,-14.90024 -15.02607,1.08089 -16.32833,-9.47441 -31.69039,-13.42185"
       style="fill:#ffffff;stroke:#000000;stroke-width:1px;stroke-linecap:butt;stroke-linejoin:miter;stroke-opacity:1" />
    <path
       style="fill:#ffffff;stroke:#000000;stroke-width:1px;stroke-linecap:butt;stroke-linejoin:miter;stroke-opacity:1"
       d="m 98.220556,864.51885 c 38.736334,-24.34342 72.447054,34.12611 110.054364,-11.68049 30.47178,-35.50334 81.33673,-21.88066 117.07303,-12.54627 -1.01211,25.56103 36.73841,66.10669 38.1758,72.47571 -19.78219,-25.49897 -78.21709,-59.399 -93.80166,-37.88304 -21.99424,30.3651 -76.03243,10.80992 -99.84054,31.69893 -4.6598,-9.50175 -28.34382,-3.77228 -41.92462,-1.8847 -15.02607,1.08088 -14.59143,-36.15627 -29.953494,-40.10371"
       id="path3997"
       inkscape:connector-curvature="0"
       sodipodi:nodetypes="ccccsccc" />
    <path
       style="fill:none;stroke:#000000;stroke-width:1px;stroke-linecap:butt;stroke-linejoin:miter;stroke-opacity:0.15686275"
       d="m 172.93123,933.66335 c 10.06569,-5.17669 20.51453,-9.85636 31.62554,-12.27117 m -45.74957,7.3627 c 17.11353,-7.72117 35.71902,-11.05896 53.73272,-15.95252 m -4.60566,-2.14746 c 2.48159,0.65039 3.6351,3.18812 5.83384,4.29491 m -24.25649,-1.84067 c 4.19704,1.73979 7.95021,4.39274 11.36063,7.3627 m -30.39736,-1.84068 c 6.89079,1.13253 12.99486,4.80594 18.72969,8.58982 m -42.67913,-2.14745 c 11.38519,-1.90737 22.96305,1.99527 32.54667,7.97626 m -40.37629,-34.35928 c 8.13076,-0.45921 20.42897,-11.98888 27.78748,-14.41862 m -40.83686,3.98813 c 11.91024,-0.20662 23.0234,-5.02929 34.08189,-8.8966 m -14.73811,-0.61356 c 0.74168,10.23336 13.86946,4.17753 18.72969,10.12372 M 125.3394,877.52275 c 0.74534,15.80623 20.26103,17.52868 32.23963,16.25929 m 73.07649,-16.56608 c 8.76039,-12.60027 22.47324,-20.98651 36.84529,-25.76945 m -0.92113,-10.43049 c -20.14799,2.52754 -38.25181,14.24566 -51.27636,29.45081 m 40.52982,-33.74572 c 5.3219,7.92447 9.02589,16.7644 13.50993,25.1559 m -41.75799,-13.49829 c 11.08479,1.21366 19.96928,9.42227 25.7917,18.40675 m -49.43409,-1.53389 c 16.50891,-3.28809 32.90624,3.68258 46.97774,11.65761"
       id="path4027"
       inkscape:connector-curvature="0"
       sodipodi:nodetypes="cccccccccccccccccccccccccccccc" />
    <path
       style="fill:#000000;stroke:#000000;stroke-width:0.64429063;stroke-opacity:1"
       d="m 204.51527,945.59311 0.30023,6.3579 -1.71704,-1.58796 -2.30604,0.39505 z"
       id="rect4042"
       inkscape:connector-curvature="0"
       sodipodi:nodetypes="ccccc" />
    <path
       style="fill:none;stroke:#000000;stroke-width:1px;stroke-linecap:butt;stroke-linejoin:miter;stroke-opacity:1"
       d="m 203.09013,950.35164 -3.88382,13.07554"
       id="path4045"
       inkscape:connector-curvature="0" />
    <text
       xml:space="preserve"
       style="font-size:40px;font-style:normal;font-weight:normal;line-height:125%;letter-spacing:0px;word-spacing:0px;fill:#000000;fill-opacity:1;stroke:none;font-family:Sans"
       x="209.69363"
       y="951.6225"
       id="text4047"
       sodipodi:linespacing="125%"><tspan
         sodipodi:role="line"
         id="tspan4049"
         x="209.69363"
         y="951.6225">n</tspan></text>
    <path
       style="fill:#000000;stroke:#000000;stroke-width:0.64429063;stroke-opacity:1"
       d="m 357.08984,942.32064 5.16878,-3.72059 -0.39497,2.30413 1.58964,1.71526 z"
       id="path4055"
       inkscape:connector-curvature="0"
       sodipodi:nodetypes="ccccc" />
    <path
       style="fill:none;stroke:#000000;stroke-width:1px;stroke-linecap:butt;stroke-linejoin:miter;stroke-opacity:1"
       d="m 361.85862,940.91739 c 4.34948,-1.29847 18.2135,-5.42977 25.89579,-5.61825"
       id="path4057"
       inkscape:connector-curvature="0"
       sodipodi:nodetypes="cc" />
    <path
       sodipodi:nodetypes="ccccc"
       inkscape:connector-curvature="0"
       id="path4059"
       d="m 364.54056,991.59946 3.6242,-5.23458 0.39972,2.30332 2.07256,1.08471 z"
       style="fill:#000000;stroke:#000000;stroke-width:0.64429063;stroke-opacity:1" />
    <path
       inkscape:connector-curvature="0"
       id="path4061"
       d="m 368.56416,988.68233 c 21.49184,-14.38068 13.51,-12.65521 24.27441,-30.16167"
       style="fill:none;stroke:#000000;stroke-width:1px;stroke-linecap:butt;stroke-linejoin:miter;stroke-opacity:1"
       sodipodi:nodetypes="cc" />
    <text
       xml:space="preserve"
       style="font-size:40px;font-style:normal;font-weight:normal;line-height:125%;letter-spacing:0px;word-spacing:0px;fill:#000000;fill-opacity:1;stroke:none;font-family:Sans"
       x="398.88522"
       y="964.6604"
       id="text4063"
       sodipodi:linespacing="125%"><tspan
         sodipodi:role="line"
         id="tspan4065"
         x="398.88522"
         y="964.6604">\Sigma(t)</tspan></text>
    <text
       xml:space="preserve"
       style="font-size:40px;font-style:normal;font-weight:normal;line-height:125%;letter-spacing:0px;word-spacing:0px;fill:#000000;fill-opacity:1;stroke:none;font-family:Sans"
       x="389.55313"
       y="938.03009"
       id="text4067"
       sodipodi:linespacing="125%"><tspan
         sodipodi:role="line"
         id="tspan4069"
         x="389.55313"
         y="938.03009">\Sigma(t+\rm{d}t)</tspan></text>
  </g>
</svg>
