<?xml version="1.0" encoding="UTF-8" standalone="no"?>
<!-- Created with Inkscape (http://www.inkscape.org/) -->

<svg
   xmlns:dc="http://purl.org/dc/elements/1.1/"
   xmlns:cc="http://creativecommons.org/ns#"
   xmlns:rdf="http://www.w3.org/1999/02/22-rdf-syntax-ns#"
   xmlns:svg="http://www.w3.org/2000/svg"
   xmlns="http://www.w3.org/2000/svg"
   xmlns:sodipodi="http://sodipodi.sourceforge.net/DTD/sodipodi-0.dtd"
   xmlns:inkscape="http://www.inkscape.org/namespaces/inkscape"
   width="744.09448819"
   height="1052.3622047"
   id="svg2"
   version="1.1"
   inkscape:version="0.48.4 r9939"
   sodipodi:docname="RS3.svg">
  <sodipodi:namedview
     id="base"
     pagecolor="#ffffff"
     bordercolor="#666666"
     borderopacity="1.0"
     inkscape:pageopacity="0.0"
     inkscape:pageshadow="2"
     inkscape:zoom="1.4"
     inkscape:cx="248.26143"
     inkscape:cy="171.33252"
     inkscape:document-units="px"
     inkscape:current-layer="g3898"
     showgrid="false"
     inkscape:window-width="1280"
     inkscape:window-height="989"
     inkscape:window-x="0"
     inkscape:window-y="56"
     inkscape:window-maximized="1" />
  <defs
     id="defs4" />
  <metadata
     id="metadata7">
    <rdf:RDF>
      <cc:Work
         rdf:about="">
        <dc:format>image/svg+xml</dc:format>
        <dc:type
           rdf:resource="http://purl.org/dc/dcmitype/StillImage" />
        <dc:title />
      </cc:Work>
    </rdf:RDF>
  </metadata>
  <g
     inkscape:label="Layer 1"
     inkscape:groupmode="layer"
     id="layer1">
    <g
       style="fill:#ffffff;fill-opacity:0.81034482"
       id="g3922">
      <path
         id="path3924"
         d="M 214.28125 740.9375 C 140.1173 740.9375 80 801.05479 80 875.21875 C 80 949.38271 140.1173 1009.5 214.28125 1009.5 C 288.44521 1009.5 348.5625 949.38271 348.5625 875.21875 C 348.5625 801.05479 288.44521 740.9375 214.28125 740.9375 z M 244.5 790.84375 C 268.09814 791.34198 273.2571 821.46462 288.25 835.3125 C 301.25153 856.32976 325.24478 871.84891 328.5 897.84375 C 327.94932 921.0561 298.4384 924.07622 290.21875 943 C 286.22714 963.28471 261.11123 968.67103 251.78125 948.875 C 243.42013 932.74361 228.39079 913.14226 241.75 895.375 C 258.08325 877.66207 245.07264 855.1831 231.8125 840.28125 C 217.53585 827.11276 216.1269 796.05328 239.15625 792 L 241.78125 791.25 L 244.5 790.84375 z "
         style="fill:#ffffff;fill-opacity:0.81034482;fill-rule:evenodd;stroke:#000000;stroke-width:1px;stroke-linecap:butt;stroke-linejoin:miter;stroke-opacity:1" />
      <path
         id="path3926"
         d="M 236.71775 908.32441 C 229.42318 908.63109 221.92902 908.79073 214.28572 908.79073 C 177.20374 908.79073 143.63231 905.03312 119.33138 898.95789 C 95.030442 892.88265 80 884.4898 80 875.2193 "
         style="fill:#ffffff;stroke:#000000;stroke-width:1px;stroke-linecap:butt;stroke-linejoin:miter;stroke-opacity:1;fill-opacity:0.81034482" />
      <path
         id="path3928"
         d="M 348.57144 875.2193 C 348.57144 881.86082 340.85707 888.05189 327.54626 893.26303 "
         style="fill:#ffffff;stroke:#000000;stroke-width:1px;stroke-linecap:butt;stroke-linejoin:miter;stroke-opacity:1;fill-opacity:0.81034482" />
    </g>
    <g
       id="g3893">
      <path
         id="path2985"
         d="M 214.28125 740.9375 C 140.1173 740.9375 80 801.05479 80 875.21875 C 80 949.38271 140.1173 1009.5 214.28125 1009.5 C 288.44521 1009.5 348.5625 949.38271 348.5625 875.21875 C 348.5625 801.05479 288.44521 740.9375 214.28125 740.9375 z M 244.5 790.84375 C 268.09814 791.34198 273.2571 821.46462 288.25 835.3125 C 301.25153 856.32976 325.24478 871.84891 328.5 897.84375 C 327.94932 921.0561 298.4384 924.07622 290.21875 943 C 286.22714 963.28471 261.11123 968.67103 251.78125 948.875 C 243.42013 932.74361 228.39079 913.14226 241.75 895.375 C 258.08325 877.66207 245.07264 855.1831 231.8125 840.28125 C 217.53585 827.11276 216.1269 796.05328 239.15625 792 L 241.78125 791.25 L 244.5 790.84375 z "
         style="fill:#ffffff;fill-opacity:1;fill-rule:evenodd;stroke:#000000;stroke-width:1px;stroke-linecap:butt;stroke-linejoin:miter;stroke-opacity:1" />
      <path
         id="path3884"
         d="M 236.71775 908.32441 C 229.42318 908.63109 221.92902 908.79073 214.28572 908.79073 C 177.20374 908.79073 143.63231 905.03312 119.33138 898.95789 C 95.030442 892.88265 80 884.4898 80 875.2193 "
         style="fill:none;stroke:#000000;stroke-width:1px;stroke-linecap:butt;stroke-linejoin:miter;stroke-opacity:1" />
      <path
         id="path2987"
         d="M 348.57144 875.2193 C 348.57144 881.86082 340.85707 888.05189 327.54626 893.26303 "
         style="fill:none;stroke:#000000;stroke-width:1px;stroke-linecap:butt;stroke-linejoin:miter;stroke-opacity:1" />
    </g>
    <path
       sodipodi:type="arc"
       style="fill:none"
       id="path3061"
       sodipodi:cx="205.18724"
       sodipodi:cy="904.62738"
       sodipodi:rx="33.71384"
       sodipodi:ry="39.14341"
       d="m 238.90108,904.62738 a 33.71384,39.14341 0 1 1 -67.42768,0 33.71384,39.14341 0 1 1 67.42768,0 z" />
    <g
       id="g3898"
       style="fill:#ffffff;fill-opacity:0.81034482">
      <path
         transform="matrix(2.5792845,0,0,2.5792845,-372.50682,-1397.1565)"
         sodipodi:type="arc"
         style="fill:#000000;fill-opacity:1;stroke:#000000;stroke-opacity:1"
         id="path4046"
         sodipodi:cx="235.87062"
         sodipodi:cy="884.67688"
         sodipodi:rx="25.506351"
         sodipodi:ry="25.506351"
         d="m 261.37697,884.67688 a 25.506351,25.506351 0 1 1 -51.0127,0 25.506351,25.506351 0 1 1 51.0127,0 z" />
      <g
         style="fill:#2f2f2f;fill-opacity:1;stroke:#000000;stroke-opacity:1"
         id="g4027"
         transform="matrix(0.65371906,0,0,0.65371906,74.20306,303.07158)">
        <path
           style="fill:#2f2f2f;fill-opacity:1;fill-rule:evenodd;stroke:#000000;stroke-width:1px;stroke-linecap:butt;stroke-linejoin:miter;stroke-opacity:1"
           d="M 214.28125,740.9375 C 140.1173,740.9375 80,801.05479 80,875.21875 80,949.38271 140.1173,1009.5 214.28125,1009.5 c 74.16396,0 134.28125,-60.11729 134.28125,-134.28125 0,-74.16396 -60.11729,-134.28125 -134.28125,-134.28125 z M 244.5,790.84375 c 23.59814,0.49823 28.7571,30.62087 43.75,44.46875 13.00153,21.01726 36.99478,36.53641 40.25,62.53125 -0.55068,23.21235 -30.0616,26.23247 -38.28125,45.15625 -3.99161,20.28471 -29.10752,25.67103 -38.4375,5.875 -8.36112,-16.13139 -23.39046,-35.73274 -10.03125,-53.5 16.33325,-17.71293 3.32264,-40.1919 -9.9375,-55.09375 C 217.53585,827.11276 216.1269,796.05328 239.15625,792 l 2.625,-0.75 2.71875,-0.40625 z"
           id="path4029"
           inkscape:connector-curvature="0" />
        <path
           style="fill:#2f2f2f;fill-opacity:1;stroke:#000000;stroke-width:1px;stroke-linecap:butt;stroke-linejoin:miter;stroke-opacity:1"
           d="m 236.71775,908.32441 c -7.29457,0.30668 -14.78873,0.46632 -22.43203,0.46632 -37.08198,0 -70.65341,-3.75761 -94.95434,-9.83284 C 95.030442,892.88265 80,884.4898 80,875.2193"
           id="path4031"
           inkscape:connector-curvature="0" />
        <path
           style="fill:#2f2f2f;fill-opacity:1;stroke:#000000;stroke-width:1px;stroke-linecap:butt;stroke-linejoin:miter;stroke-opacity:1"
           d="m 348.57144,875.2193 c 0,6.64152 -7.71437,12.83259 -21.02518,18.04373"
           id="path4033"
           inkscape:connector-curvature="0" />
      </g>
      <g
         transform="matrix(0.67127838,0,0,0.67127838,70.440346,287.70334)"
         id="g4019"
         style="fill:#5d5d5d;fill-opacity:1;stroke:#000000;stroke-opacity:1">
        <path
           inkscape:connector-curvature="0"
           id="path4021"
           d="M 214.28125,740.9375 C 140.1173,740.9375 80,801.05479 80,875.21875 80,949.38271 140.1173,1009.5 214.28125,1009.5 c 74.16396,0 134.28125,-60.11729 134.28125,-134.28125 0,-74.16396 -60.11729,-134.28125 -134.28125,-134.28125 z M 244.5,790.84375 c 23.59814,0.49823 28.7571,30.62087 43.75,44.46875 13.00153,21.01726 36.99478,36.53641 40.25,62.53125 -0.55068,23.21235 -30.0616,26.23247 -38.28125,45.15625 -3.99161,20.28471 -29.10752,25.67103 -38.4375,5.875 -8.36112,-16.13139 -23.39046,-35.73274 -10.03125,-53.5 16.33325,-17.71293 3.32264,-40.1919 -9.9375,-55.09375 C 217.53585,827.11276 216.1269,796.05328 239.15625,792 l 2.625,-0.75 2.71875,-0.40625 z"
           style="fill:#5d5d5d;fill-opacity:1;fill-rule:evenodd;stroke:#000000;stroke-width:1px;stroke-linecap:butt;stroke-linejoin:miter;stroke-opacity:1" />
        <path
           inkscape:connector-curvature="0"
           id="path4023"
           d="m 236.71775,908.32441 c -7.29457,0.30668 -14.78873,0.46632 -22.43203,0.46632 -37.08198,0 -70.65341,-3.75761 -94.95434,-9.83284 C 95.030442,892.88265 80,884.4898 80,875.2193"
           style="fill:#5d5d5d;fill-opacity:1;stroke:#000000;stroke-width:1px;stroke-linecap:butt;stroke-linejoin:miter;stroke-opacity:1" />
        <path
           inkscape:connector-curvature="0"
           id="path4025"
           d="m 348.57144,875.2193 c 0,6.64152 -7.71437,12.83259 -21.02518,18.04373"
           style="fill:#5d5d5d;fill-opacity:1;stroke:#000000;stroke-width:1px;stroke-linecap:butt;stroke-linejoin:miter;stroke-opacity:1" />
      </g>
      <g
         style="fill:#858585;fill-opacity:1;stroke:#000000;stroke-opacity:1"
         id="g3995"
         transform="matrix(0.69103261,0,0,0.69103261,66.207299,270.41406)">
        <path
           style="fill:#858585;fill-opacity:1;fill-rule:evenodd;stroke:#000000;stroke-width:1px;stroke-linecap:butt;stroke-linejoin:miter;stroke-opacity:1"
           d="M 214.28125,740.9375 C 140.1173,740.9375 80,801.05479 80,875.21875 80,949.38271 140.1173,1009.5 214.28125,1009.5 c 74.16396,0 134.28125,-60.11729 134.28125,-134.28125 0,-74.16396 -60.11729,-134.28125 -134.28125,-134.28125 z M 244.5,790.84375 c 23.59814,0.49823 28.7571,30.62087 43.75,44.46875 13.00153,21.01726 36.99478,36.53641 40.25,62.53125 -0.55068,23.21235 -30.0616,26.23247 -38.28125,45.15625 -3.99161,20.28471 -29.10752,25.67103 -38.4375,5.875 -8.36112,-16.13139 -23.39046,-35.73274 -10.03125,-53.5 16.33325,-17.71293 3.32264,-40.1919 -9.9375,-55.09375 C 217.53585,827.11276 216.1269,796.05328 239.15625,792 l 2.625,-0.75 2.71875,-0.40625 z"
           id="path3997"
           inkscape:connector-curvature="0" />
        <path
           style="fill:#858585;fill-opacity:1;stroke:#000000;stroke-width:1px;stroke-linecap:butt;stroke-linejoin:miter;stroke-opacity:1"
           d="m 236.71775,908.32441 c -7.29457,0.30668 -14.78873,0.46632 -22.43203,0.46632 -37.08198,0 -70.65341,-3.75761 -94.95434,-9.83284 C 95.030442,892.88265 80,884.4898 80,875.2193"
           id="path3999"
           inkscape:connector-curvature="0" />
        <path
           style="fill:#858585;fill-opacity:1;stroke:#000000;stroke-width:1px;stroke-linecap:butt;stroke-linejoin:miter;stroke-opacity:1"
           d="m 348.57144,875.2193 c 0,6.64152 -7.71437,12.83259 -21.02518,18.04373"
           id="path4001"
           inkscape:connector-curvature="0" />
      </g>
      <g
         transform="matrix(0.71252336,0,0,0.71252336,61.602141,251.60495)"
         id="g3987"
         style="fill:#a0a0a0;fill-opacity:1;stroke:#000000;stroke-opacity:1">
        <path
           inkscape:connector-curvature="0"
           id="path3989"
           d="M 214.28125,740.9375 C 140.1173,740.9375 80,801.05479 80,875.21875 80,949.38271 140.1173,1009.5 214.28125,1009.5 c 74.16396,0 134.28125,-60.11729 134.28125,-134.28125 0,-74.16396 -60.11729,-134.28125 -134.28125,-134.28125 z M 244.5,790.84375 c 23.59814,0.49823 28.7571,30.62087 43.75,44.46875 13.00153,21.01726 36.99478,36.53641 40.25,62.53125 -0.55068,23.21235 -30.0616,26.23247 -38.28125,45.15625 -3.99161,20.28471 -29.10752,25.67103 -38.4375,5.875 -8.36112,-16.13139 -23.39046,-35.73274 -10.03125,-53.5 16.33325,-17.71293 3.32264,-40.1919 -9.9375,-55.09375 C 217.53585,827.11276 216.1269,796.05328 239.15625,792 l 2.625,-0.75 2.71875,-0.40625 z"
           style="fill:#a0a0a0;fill-opacity:1;fill-rule:evenodd;stroke:#000000;stroke-width:1px;stroke-linecap:butt;stroke-linejoin:miter;stroke-opacity:1" />
        <path
           inkscape:connector-curvature="0"
           id="path3991"
           d="m 236.71775,908.32441 c -7.29457,0.30668 -14.78873,0.46632 -22.43203,0.46632 -37.08198,0 -70.65341,-3.75761 -94.95434,-9.83284 C 95.030442,892.88265 80,884.4898 80,875.2193"
           style="fill:#a0a0a0;fill-opacity:1;stroke:#000000;stroke-width:1px;stroke-linecap:butt;stroke-linejoin:miter;stroke-opacity:1" />
        <path
           inkscape:connector-curvature="0"
           id="path3993"
           d="m 348.57144,875.2193 c 0,6.64152 -7.71437,12.83259 -21.02518,18.04373"
           style="fill:#a0a0a0;fill-opacity:1;stroke:#000000;stroke-width:1px;stroke-linecap:butt;stroke-linejoin:miter;stroke-opacity:1" />
      </g>
      <g
         style="fill:#bbbbbb;fill-opacity:1;stroke:#000000;stroke-opacity:1"
         id="g3979"
         transform="matrix(0.747725,0,0,0.747725,54.058931,220.79581)">
        <path
           style="fill:#bbbbbb;fill-opacity:1;fill-rule:evenodd;stroke:#000000;stroke-width:1px;stroke-linecap:butt;stroke-linejoin:miter;stroke-opacity:1"
           d="M 214.28125,740.9375 C 140.1173,740.9375 80,801.05479 80,875.21875 80,949.38271 140.1173,1009.5 214.28125,1009.5 c 74.16396,0 134.28125,-60.11729 134.28125,-134.28125 0,-74.16396 -60.11729,-134.28125 -134.28125,-134.28125 z M 244.5,790.84375 c 23.59814,0.49823 28.7571,30.62087 43.75,44.46875 13.00153,21.01726 36.99478,36.53641 40.25,62.53125 -0.55068,23.21235 -30.0616,26.23247 -38.28125,45.15625 -3.99161,20.28471 -29.10752,25.67103 -38.4375,5.875 -8.36112,-16.13139 -23.39046,-35.73274 -10.03125,-53.5 16.33325,-17.71293 3.32264,-40.1919 -9.9375,-55.09375 C 217.53585,827.11276 216.1269,796.05328 239.15625,792 l 2.625,-0.75 2.71875,-0.40625 z"
           id="path3981"
           inkscape:connector-curvature="0" />
        <path
           style="fill:#bbbbbb;fill-opacity:1;stroke:#000000;stroke-width:1px;stroke-linecap:butt;stroke-linejoin:miter;stroke-opacity:1"
           d="m 236.71775,908.32441 c -7.29457,0.30668 -14.78873,0.46632 -22.43203,0.46632 -37.08198,0 -70.65341,-3.75761 -94.95434,-9.83284 C 95.030442,892.88265 80,884.4898 80,875.2193"
           id="path3983"
           inkscape:connector-curvature="0" />
        <path
           style="fill:#bbbbbb;fill-opacity:1;stroke:#000000;stroke-width:1px;stroke-linecap:butt;stroke-linejoin:miter;stroke-opacity:1"
           d="m 348.57144,875.2193 c 0,6.64152 -7.71437,12.83259 -21.02518,18.04373"
           id="path3985"
           inkscape:connector-curvature="0" />
      </g>
      <g
         transform="matrix(0.80101682,0,0,0.80101682,42.639255,174.15381)"
         id="g3971"
         style="fill:#cccccc;fill-opacity:1;stroke:#000000;stroke-opacity:1">
        <path
           inkscape:connector-curvature="0"
           id="path3973"
           d="M 214.28125,740.9375 C 140.1173,740.9375 80,801.05479 80,875.21875 80,949.38271 140.1173,1009.5 214.28125,1009.5 c 74.16396,0 134.28125,-60.11729 134.28125,-134.28125 0,-74.16396 -60.11729,-134.28125 -134.28125,-134.28125 z M 244.5,790.84375 c 23.59814,0.49823 28.7571,30.62087 43.75,44.46875 13.00153,21.01726 36.99478,36.53641 40.25,62.53125 -0.55068,23.21235 -30.0616,26.23247 -38.28125,45.15625 -3.99161,20.28471 -29.10752,25.67103 -38.4375,5.875 -8.36112,-16.13139 -23.39046,-35.73274 -10.03125,-53.5 16.33325,-17.71293 3.32264,-40.1919 -9.9375,-55.09375 C 217.53585,827.11276 216.1269,796.05328 239.15625,792 l 2.625,-0.75 2.71875,-0.40625 z"
           style="fill:#cccccc;fill-opacity:1;fill-rule:evenodd;stroke:#000000;stroke-width:1px;stroke-linecap:butt;stroke-linejoin:miter;stroke-opacity:1" />
        <path
           inkscape:connector-curvature="0"
           id="path3975"
           d="m 236.71775,908.32441 c -7.29457,0.30668 -14.78873,0.46632 -22.43203,0.46632 -37.08198,0 -70.65341,-3.75761 -94.95434,-9.83284 C 95.030442,892.88265 80,884.4898 80,875.2193"
           style="fill:#cccccc;fill-opacity:1;stroke:#000000;stroke-width:1px;stroke-linecap:butt;stroke-linejoin:miter;stroke-opacity:1" />
        <path
           inkscape:connector-curvature="0"
           id="path3977"
           d="m 348.57144,875.2193 c 0,6.64152 -7.71437,12.83259 -21.02518,18.04373"
           style="fill:#cccccc;fill-opacity:1;stroke:#000000;stroke-width:1px;stroke-linecap:butt;stroke-linejoin:miter;stroke-opacity:1" />
      </g>
      <g
         style="fill:#e1e1e1;fill-opacity:1;stroke:#000000;stroke-opacity:1"
         id="g3955"
         transform="matrix(0.87258915,0,0,0.87258915,27.302325,111.51236)">
        <path
           style="fill:#e1e1e1;fill-opacity:1;fill-rule:evenodd;stroke:#000000;stroke-width:1px;stroke-linecap:butt;stroke-linejoin:miter;stroke-opacity:1"
           d="M 214.28125,740.9375 C 140.1173,740.9375 80,801.05479 80,875.21875 80,949.38271 140.1173,1009.5 214.28125,1009.5 c 74.16396,0 134.28125,-60.11729 134.28125,-134.28125 0,-74.16396 -60.11729,-134.28125 -134.28125,-134.28125 z M 244.5,790.84375 c 23.59814,0.49823 28.7571,30.62087 43.75,44.46875 13.00153,21.01726 36.99478,36.53641 40.25,62.53125 -0.55068,23.21235 -30.0616,26.23247 -38.28125,45.15625 -3.99161,20.28471 -29.10752,25.67103 -38.4375,5.875 -8.36112,-16.13139 -23.39046,-35.73274 -10.03125,-53.5 16.33325,-17.71293 3.32264,-40.1919 -9.9375,-55.09375 C 217.53585,827.11276 216.1269,796.05328 239.15625,792 l 2.625,-0.75 2.71875,-0.40625 z"
           id="path3957"
           inkscape:connector-curvature="0" />
        <path
           style="fill:#e1e1e1;fill-opacity:1;stroke:#000000;stroke-width:1px;stroke-linecap:butt;stroke-linejoin:miter;stroke-opacity:1"
           d="m 236.71775,908.32441 c -7.29457,0.30668 -14.78873,0.46632 -22.43203,0.46632 -37.08198,0 -70.65341,-3.75761 -94.95434,-9.83284 C 95.030442,892.88265 80,884.4898 80,875.2193"
           id="path3959"
           inkscape:connector-curvature="0" />
        <path
           style="fill:#e1e1e1;fill-opacity:1;stroke:#000000;stroke-width:1px;stroke-linecap:butt;stroke-linejoin:miter;stroke-opacity:1"
           d="m 348.57144,875.2193 c 0,6.64152 -7.71437,12.83259 -21.02518,18.04373"
           id="path3961"
           inkscape:connector-curvature="0" />
      </g>
      <g
         id="g3934"
         style="fill:#ffffff;fill-opacity:1;stroke:#000000;stroke-opacity:1">
        <path
           id="path3900"
           d="M 214.28125 740.9375 C 140.1173 740.9375 80 801.05479 80 875.21875 C 80 949.38271 140.1173 1009.5 214.28125 1009.5 C 288.44521 1009.5 348.5625 949.38271 348.5625 875.21875 C 348.5625 801.05479 288.44521 740.9375 214.28125 740.9375 z M 244.5 790.84375 C 268.09814 791.34198 273.2571 821.46462 288.25 835.3125 C 301.25153 856.32976 325.24478 871.84891 328.5 897.84375 C 327.94932 921.0561 298.4384 924.07622 290.21875 943 C 286.22714 963.28471 261.11123 968.67103 251.78125 948.875 C 243.42013 932.74361 228.39079 913.14226 241.75 895.375 C 258.08325 877.66207 245.07264 855.1831 231.8125 840.28125 C 217.53585 827.11276 216.1269 796.05328 239.15625 792 L 241.78125 791.25 L 244.5 790.84375 z "
           style="fill:#ffffff;fill-opacity:1;fill-rule:evenodd;stroke:#000000;stroke-width:1px;stroke-linecap:butt;stroke-linejoin:miter;stroke-opacity:1" />
        <path
           id="path3902"
           d="M 236.71775 908.32441 C 229.42318 908.63109 221.92902 908.79073 214.28572 908.79073 C 177.20374 908.79073 143.63231 905.03312 119.33138 898.95789 C 95.030442 892.88265 80 884.4898 80 875.2193 "
           style="fill:#ffffff;stroke:#000000;stroke-width:1px;stroke-linecap:butt;stroke-linejoin:miter;stroke-opacity:1;fill-opacity:1" />
        <path
           id="path3904"
           d="M 348.57144 875.2193 C 348.57144 881.86082 340.85707 888.05189 327.54626 893.26303 "
           style="fill:#ffffff;stroke:#000000;stroke-width:1px;stroke-linecap:butt;stroke-linejoin:miter;stroke-opacity:1;fill-opacity:1" />
      </g>
      <path
         style="fill:#000003;fill-opacity:1;stroke:#000000;stroke-width:1;stroke-opacity:1"
         d="m 350.96585,821.21894 12.26989,-10.81482 -0.3497,5.99661 4.4184,4.06933 z"
         id="rect4035"
         inkscape:connector-curvature="0"
         sodipodi:nodetypes="ccccc" />
      <g
         style="fill:#ffffff;fill-opacity:1;stroke:#000000;stroke-opacity:1"
         id="g4048">
        <path
           style="fill:none;fill-opacity:1;fill-rule:evenodd;stroke:#000000;stroke-width:0.93009542999999995px;stroke-linecap:butt;stroke-linejoin:miter;stroke-opacity:1"
           d="m 214.28125,740.90255 c -64.14087,0 -116.133456,60.13294 -116.133456,134.3162 0,74.18326 51.992586,134.31625 116.133456,134.31625"
           id="path4050"
           inkscape:connector-curvature="0"
           sodipodi:nodetypes="csc" />
        <path
           sodipodi:nodetypes="csc"
           inkscape:connector-curvature="0"
           id="path4056"
           d="m 214.28125,740.84566 c -49.38766,0 -89.4213,60.15841 -89.4213,134.37309 0,74.21468 40.03364,134.37315 89.4213,134.37315"
           style="fill:none;fill-opacity:1;fill-rule:evenodd;stroke:#000000;stroke-width:0.81632154999999984px;stroke-linecap:butt;stroke-linejoin:miter;stroke-opacity:1" />
        <path
           style="fill:none;fill-opacity:1;fill-rule:evenodd;stroke:#000000;stroke-width:0.66716808000000005px;stroke-linecap:butt;stroke-linejoin:miter;stroke-opacity:1"
           d="m 214.28125,740.77108 c -32.97049,0 -59.69638,60.1918 -59.69638,134.44767 0,74.25587 26.72589,134.44775 59.69638,134.44775"
           id="path4058"
           inkscape:connector-curvature="0"
           sodipodi:nodetypes="csc" />
      </g>
      <path
         style="fill:none;stroke:#000000;stroke-width:1px;stroke-linecap:butt;stroke-linejoin:miter;stroke-opacity:1"
         d="m 363.14984,815.98649 c 36.61904,-13.07262 52.8063,9.48068 63.13453,-26.26398"
         id="path4072"
         inkscape:connector-curvature="0"
         sodipodi:nodetypes="cc" />
      <text
         xml:space="preserve"
         style="font-size:40px;font-style:normal;font-weight:normal;line-height:125%;letter-spacing:0px;word-spacing:0px;fill:#000000;fill-opacity:1;stroke:#000000;font-family:Sans;stroke-opacity:1"
         x="424.76917"
         y="787.70221"
         id="text4088"
         sodipodi:linespacing="125%"><tspan
           sodipodi:role="line"
           id="tspan4090"
           x="424.76917"
           y="787.70221">\mathcal{S}^3</tspan></text>
    </g>
  </g>
</svg>
